<svg width="18" height="18" viewBox="0 0 18 18" fill="none" xmlns="http://www.w3.org/2000/svg">
<path d="M16.6875 6.96875C16.8125 6.875 17 6.96875 17 7.125V13.5C17 14.3438 16.3125 15 15.5 15H2.5C1.65625 15 1 14.3438 1 13.5V7.125C1 6.96875 1.15625 6.875 1.28125 6.96875C2 7.53125 2.90625 8.21875 6.09375 10.5312C6.75 11 7.875 12.0312 9 12.0312C10.0938 12.0312 11.25 11 11.875 10.5312C15.0625 8.21875 15.9688 7.53125 16.6875 6.96875ZM9 11C8.25 11.0312 7.21875 10.0938 6.6875 9.71875C2.53125 6.71875 2.21875 6.4375 1.28125 5.6875C1.09375 5.5625 1 5.34375 1 5.09375V4.5C1 3.6875 1.65625 3 2.5 3H15.5C16.3125 3 17 3.6875 17 4.5V5.09375C17 5.34375 16.875 5.5625 16.6875 5.6875C15.75 6.4375 15.4375 6.71875 11.2812 9.71875C10.75 10.0938 9.71875 11.0312 9 11Z" fill="white"/>
</svg>
