<svg width="35" height="36" viewBox="0 0 35 36" fill="none" xmlns="http://www.w3.org/2000/svg">
<g clip-path="url(#clip0_2152_1086)">
<path d="M30.4114 8.00531L23.1197 0.713623C22.983 0.576904 22.7978 0.5 22.6041 0.5H7.29162C5.68306 0.5 4.375 1.80806 4.375 3.41669V32.5834C4.375 34.1919 5.68306 35.5 7.29169 35.5H27.7084C29.3169 35.5 30.625 34.1919 30.625 32.5833V8.52081C30.625 8.32715 30.5481 8.14203 30.4114 8.00531ZM23.3333 2.98944L28.1356 7.79169H24.7916C23.9877 7.79169 23.3333 7.13729 23.3333 6.33338V2.98944ZM29.1667 32.5833C29.1667 33.3872 28.5123 34.0416 27.7084 34.0416H7.29169C6.48778 34.0416 5.83338 33.3872 5.83338 32.5833V3.41669C5.83338 2.61278 6.48778 1.95838 7.29169 1.95838H21.875V6.33338C21.875 7.94194 23.1831 9.25 24.7917 9.25H29.1667V32.5833Z" fill="black"/>
<path d="M21.2177 21.9056C20.5427 21.3744 19.9011 20.8283 19.4739 20.401C18.9185 19.8456 18.4235 19.3073 17.9935 18.7946C18.6643 16.7217 18.9584 15.6529 18.9584 15.0832C18.9584 12.6629 18.0839 12.1665 16.7709 12.1665C15.7732 12.1665 14.5834 12.6849 14.5834 15.153C14.5834 16.2411 15.1794 17.562 16.3607 19.0972C16.0716 19.9794 15.732 20.997 15.3503 22.1442C15.1666 22.6946 14.9672 23.2044 14.7564 23.6758C14.5883 23.7501 14.4218 23.8282 14.2572 23.9101C13.6776 24.1999 13.1272 24.4605 12.6166 24.7027C10.2881 25.805 8.75 26.5341 8.75 27.9739C8.75 29.0193 9.88579 29.6665 10.9375 29.6665C12.2933 29.6665 14.3405 27.8557 15.8359 24.8051C17.3882 24.1928 19.3179 23.7391 20.8411 23.455C22.0616 24.3935 23.4095 25.2915 24.0625 25.2915C25.8705 25.2915 26.25 24.2462 26.25 23.3696C26.25 21.6456 24.2804 21.6456 23.3333 21.6456C23.0392 21.6457 22.2503 21.7326 21.2177 21.9056ZM10.9375 28.2082C10.5209 28.2082 10.2389 28.0117 10.2083 27.9739C10.2083 27.4569 11.75 26.7264 13.2411 26.02C13.3358 25.9752 13.4319 25.9303 13.5295 25.884C12.4343 27.472 11.3512 28.2082 10.9375 28.2082ZM16.0417 15.153C16.0417 13.6249 16.516 13.6249 16.7709 13.6249C17.2864 13.6249 17.5001 13.6249 17.5001 15.0832C17.5001 15.3908 17.295 16.1599 16.9197 17.3604C16.3471 16.4789 16.0417 15.7234 16.0417 15.153ZM16.6007 22.9901C16.6465 22.8625 16.6907 22.7344 16.7331 22.6056C17.0037 21.7938 17.2473 21.0646 17.4645 20.4081C17.7671 20.7414 18.0932 21.0825 18.4429 21.4321C18.5796 21.5688 18.9185 21.8764 19.37 22.2616C18.4712 22.4575 17.515 22.7003 16.6007 22.9901ZM24.7917 23.3696C24.7917 23.6972 24.7917 23.8332 24.1152 23.8375C23.9166 23.7948 23.4572 23.5242 22.8904 23.1383C23.0962 23.1155 23.2479 23.1041 23.3333 23.1041C24.4107 23.1041 24.7162 23.2094 24.7917 23.3696Z" fill="black"/>
</g>
<defs>
<clipPath id="clip0_2152_1086">
<rect width="35" height="35" fill="white" transform="translate(0 0.5)"/>
</clipPath>
</defs>
</svg>
