<svg width="18" height="18" viewBox="0 0 18 18" fill="none" xmlns="http://www.w3.org/2000/svg">
<g clip-path="url(#clip0_2157_992)">
<path fill-rule="evenodd" clip-rule="evenodd" d="M13.2414 17.9974C11.9432 17.9497 8.26404 17.4413 4.41092 13.5899C0.558713 9.73757 0.0511543 6.0601 0.00247198 4.76127C-0.0696499 2.78193 1.44671 0.859377 3.19837 0.108561C3.40931 0.0174959 3.6403 -0.0171754 3.86869 0.00794945C4.09707 0.0330743 4.31499 0.117132 4.50108 0.251874C5.94351 1.30284 6.9388 2.8928 7.79344 4.14296C7.98149 4.41762 8.06189 4.75185 8.01933 5.08197C7.97676 5.41208 7.81422 5.715 7.56265 5.93302L5.80378 7.23906C5.7188 7.30041 5.65899 7.39051 5.63544 7.49262C5.6119 7.59474 5.62622 7.70193 5.67576 7.79428C6.07424 8.51806 6.78283 9.59606 7.59421 10.4073C8.40648 11.2185 9.53519 11.9738 10.3096 12.4172C10.4067 12.4717 10.521 12.487 10.629 12.4598C10.737 12.4327 10.8304 12.3652 10.8902 12.2712L12.0351 10.5289C12.2456 10.2494 12.5561 10.0621 12.9016 10.0063C13.2471 9.95055 13.6008 10.0306 13.8886 10.2297C15.1571 11.1076 16.6374 12.0856 17.721 13.4727C17.8667 13.6601 17.9594 13.8832 17.9894 14.1187C18.0194 14.3541 17.9855 14.5933 17.8914 14.8112C17.1368 16.5715 15.2274 18.0704 13.2414 17.9974Z" fill="white"/>
</g>
<defs>
<clipPath id="clip0_2157_992">
<rect width="18" height="18" fill="white"/>
</clipPath>
</defs>
</svg>
