<svg width="20" height="20" viewBox="0 0 20 20" fill="none" xmlns="http://www.w3.org/2000/svg">
<path d="M6.4 10H5.65H6.4ZM13.6 10H14.35H13.6ZM10 13.6V14.35V13.6ZM11.8625 18.8071L12.0169 19.541L11.8625 18.8071ZM8.13754 18.8071L7.9831 19.541L8.13754 18.8071ZM1.66475 6.59908L0.970429 6.31549H0.970429L1.66475 6.59908ZM1.19294 11.8625L0.459016 12.0169L1.19294 11.8625ZM8.13754 1.19294L7.9831 0.459016L8.13754 1.19294ZM11.8625 1.19294L12.0169 0.459017L11.8625 1.19294ZM18.2628 6.63155L18.0451 5.91383L18.2628 6.63155ZM1.73617 6.63122L1.95387 5.91352L1.73617 6.63122ZM17.6419 6.88491C18.0337 7.84509 18.25 8.89635 18.25 10H19.75C19.75 8.6987 19.4947 7.45517 19.0307 6.31816L17.6419 6.88491ZM18.25 10C18.25 10.5863 18.189 11.1576 18.0731 11.708L19.541 12.0169C19.6781 11.3655 19.75 10.6907 19.75 10H18.25ZM18.0731 11.708C17.4029 14.893 14.893 17.4029 11.708 18.0731L12.0169 19.541C15.7838 18.7483 18.7484 15.7838 19.541 12.0169L18.0731 11.708ZM11.708 18.0731C11.1576 18.189 10.5863 18.25 10 18.25V19.75C10.6907 19.75 11.3655 19.6781 12.0169 19.541L11.708 18.0731ZM10 18.25C9.41367 18.25 8.84242 18.189 8.29197 18.0731L7.9831 19.541C8.63451 19.6781 9.30926 19.75 10 19.75V18.25ZM1.75 10C1.75 8.89549 1.96665 7.84344 2.35907 6.88266L0.970429 6.31549C0.505736 7.45322 0.25 8.69768 0.25 10H1.75ZM8.29197 18.0731C5.10698 17.4029 2.59706 14.893 1.92687 11.708L0.459016 12.0169C1.25165 15.7838 4.2162 18.7484 7.9831 19.541L8.29197 18.0731ZM1.92687 11.708C1.81105 11.1576 1.75 10.5863 1.75 10H0.25C0.25 10.6907 0.321947 11.3655 0.459016 12.0169L1.92687 11.708ZM2.35907 6.88266C3.38059 4.38162 5.59495 2.49438 8.29197 1.92687L7.9831 0.459016C4.79145 1.1306 2.17721 3.36087 0.970429 6.31549L2.35907 6.88266ZM8.29197 1.92687C8.84242 1.81105 9.41367 1.75 10 1.75V0.25C9.30926 0.25 8.63451 0.321947 7.9831 0.459016L8.29197 1.92687ZM10 1.75C10.5863 1.75 11.1576 1.81105 11.708 1.92687L12.0169 0.459017C11.3655 0.321948 10.6907 0.25 10 0.25V1.75ZM11.708 1.92687C14.4059 2.49455 16.6207 4.38275 17.6419 6.88491L19.0307 6.31816C17.8244 3.36221 15.2095 1.13081 12.0169 0.459017L11.708 1.92687ZM11.148 1.42093C11.3961 2.19856 12.3136 5.18672 12.6894 7.93015L14.1756 7.72656C13.7811 4.84715 12.8292 1.75551 12.577 0.964961L11.148 1.42093ZM12.6894 7.93015C12.7901 8.66503 12.85 9.3693 12.85 10H14.35C14.35 9.28057 14.2822 8.50481 14.1756 7.72656L12.6894 7.93015ZM18.0451 5.91383C17.0585 6.21306 15.2063 6.73831 13.2964 7.09081L13.5686 8.5659C15.5576 8.19881 17.4702 7.65567 18.4804 7.34926L18.0451 5.91383ZM13.2964 7.09081C12.1375 7.30469 10.9832 7.45 10 7.45V8.95C11.1128 8.95 12.3676 8.78755 13.5686 8.5659L13.2964 7.09081ZM12.85 10C12.85 10.9347 12.7186 12.0249 12.5215 13.1277L13.998 13.3917C14.2029 12.246 14.35 11.0591 14.35 10H12.85ZM12.5215 13.1277C12.0893 15.5449 11.3629 17.9054 11.148 18.5791L12.577 19.035C12.7982 18.3417 13.5483 15.9069 13.998 13.3917L12.5215 13.1277ZM18.5791 11.148C17.9054 11.3629 15.5449 12.0893 13.1277 12.5214L13.3917 13.998C15.9069 13.5483 18.3417 12.7982 19.035 12.577L18.5791 11.148ZM13.1277 12.5214C12.0249 12.7186 10.9347 12.85 10 12.85V14.35C11.0591 14.35 12.246 14.2029 13.3917 13.998L13.1277 12.5214ZM10 12.85C9.06528 12.85 7.97514 12.7186 6.87226 12.5214L6.60825 13.998C7.75398 14.2029 8.94094 14.35 10 14.35V12.85ZM6.87226 12.5214C4.45508 12.0893 2.09459 11.3629 1.42093 11.148L0.96496 12.577C1.6583 12.7982 4.09305 13.5483 6.60825 13.998L6.87226 12.5214ZM5.65 10C5.65 11.0591 5.79711 12.246 6.00197 13.3917L7.47855 13.1277C7.28136 12.0249 7.15 10.9347 7.15 10H5.65ZM6.00197 13.3917C6.45168 15.9069 7.2018 18.3417 7.42303 19.035L8.85205 18.5791C8.6371 17.9054 7.91074 15.5449 7.47855 13.1277L6.00197 13.3917ZM7.42303 0.96496C7.17078 1.75551 6.21889 4.84715 5.82443 7.72656L7.31055 7.93015C7.68639 5.18672 8.60392 2.19856 8.85205 1.42093L7.42303 0.96496ZM5.82443 7.72656C5.71782 8.50481 5.65 9.28057 5.65 10H7.15C7.15 9.3693 7.20988 8.66503 7.31055 7.93015L5.82443 7.72656ZM10 7.45C9.01679 7.45 7.86252 7.30469 6.70361 7.09081L6.43137 8.5659C7.6324 8.78755 8.88722 8.95 10 8.95V7.45ZM6.70361 7.09081C4.79297 6.73819 2.94016 6.21268 1.95387 5.91352L1.51847 7.34893C2.52845 7.65529 4.44168 8.19868 6.43137 8.5659L6.70361 7.09081ZM17.9906 5.93592C18.0065 5.92766 18.0251 5.91989 18.0451 5.91383L18.4804 7.34926C18.5516 7.32768 18.6185 7.30005 18.6819 7.26715L17.9906 5.93592ZM1.27345 7.23891C1.34867 7.28491 1.4304 7.32222 1.51847 7.34893L1.95387 5.91352C1.99135 5.92488 2.02593 5.94082 2.05604 5.95924L1.27345 7.23891Z" fill="black"/>
</svg>
