<svg width="18" height="18" viewBox="0 0 18 18" fill="none" xmlns="http://www.w3.org/2000/svg">
<path fill-rule="evenodd" clip-rule="evenodd" d="M8.99598 0C11.3786 0 13.6205 0.928125 15.304 2.61562C16.9875 4.30312 18 6.54107 18 8.92366C18 13.8415 13.9098 17.8433 8.99598 17.8433H8.99196C7.49732 17.8433 6.0308 17.4696 4.72902 16.7585L0 18L1.26562 13.3795C0.486161 12.0254 0.0763393 10.4906 0.0763393 8.91964C0.0763393 4.00179 4.07812 0 8.99598 0ZM13.0621 10.7875C12.8411 10.675 11.7442 10.1366 11.5393 10.0642C11.3344 9.98791 11.1857 9.95175 11.0371 10.1767C10.8884 10.4017 10.4625 10.9 10.3299 11.0526C10.2013 11.2013 10.0688 11.2214 9.84778 11.1089C8.53796 10.454 7.67813 9.93969 6.8143 8.4571C6.68713 8.23847 6.7718 8.1499 6.94517 7.96855C7.08403 7.82329 7.2798 7.61851 7.46921 7.23969C7.54153 7.09103 7.50537 6.96246 7.44912 6.84996C7.40948 6.77069 7.17636 6.20272 6.97744 5.71807C6.89405 5.51489 6.81666 5.32635 6.76206 5.1946C6.60319 4.81331 6.44122 4.81359 6.31158 4.81382C6.29368 4.81385 6.2764 4.81388 6.25983 4.81291C6.13126 4.80487 5.9826 4.80487 5.83394 4.80487C5.68528 4.80487 5.44421 4.86112 5.2393 5.0821C5.22581 5.0969 5.21073 5.11306 5.19432 5.13065C4.96128 5.38036 4.45983 5.91765 4.45983 6.94237C4.45983 8.01077 5.21841 9.04487 5.35805 9.23522C5.36177 9.24029 5.36505 9.24476 5.36787 9.24862C5.37561 9.25885 5.38972 9.27902 5.41001 9.30804C5.68473 9.7008 7.09281 11.7139 9.1768 12.6156C10.5911 13.2263 11.1455 13.2785 11.8527 13.1741C12.2826 13.1098 13.1705 12.6357 13.3554 12.1134C13.5402 11.591 13.5402 11.1451 13.4839 11.0526C13.4403 10.9686 13.3291 10.9155 13.1647 10.837C13.1325 10.8216 13.0982 10.8052 13.0621 10.7875Z" fill="white"/>
</svg>
