<svg width="206" height="36" viewBox="0 0 206 36" fill="none" xmlns="http://www.w3.org/2000/svg">
<path d="M0 36V0H37.1358V6.13929H8.43748V14.1625H25.1712V20.3027H8.43748V29.2326H37.4875V36H0ZM83.3073 6.27949H59.5416V14.0231H82.1821C85.7092 14.0231 88.1236 14.6277 89.4356 15.8259C90.6424 17.0584 91.2525 19.2905 91.2525 22.523V27.4765C91.2525 30.7325 90.6424 32.9654 89.4356 34.1979C88.1236 35.3954 85.7092 36 82.1821 36H59.7528C56.2022 36 53.8113 35.3954 52.5692 34.1979C51.3152 32.9996 50.6824 30.7676 50.6824 27.4765V26.5113L58.1352 24.9765V29.2326H83.7988V20.9999H61.159C57.6556 20.9999 55.2883 20.3953 54.0461 19.1978C52.7922 18.0004 52.1593 15.7674 52.1593 12.4998V8.51167C52.1593 5.24416 52.7922 3.01198 54.0461 1.82537C55.2765 0.604596 57.6438 0 61.159 0H81.7605C85.1823 0 87.5489 0.581184 88.8617 1.75609C90.1274 2.91847 90.7603 4.9652 90.7603 7.88367V8.63943L83.3073 10.3955V6.27949ZM110.997 29.7211H127.802L131.188 26.8603L120.279 17.8609L110.997 23.5927V29.7211ZM112.967 36C109.498 36 107.095 35.3954 105.795 34.1979C104.541 32.9996 103.908 30.7675 103.908 27.4882V25.1167C103.908 23.6044 104.189 22.3953 104.751 21.4884C105.232 20.5815 106.45 19.5586 108.408 18.4304L115.79 14.0348C114.689 13.1044 113.915 12.221 113.47 11.3726C112.955 10.5116 112.696 9.58137 112.696 8.58176V6.55843C112.696 4.20944 113.353 2.51175 114.654 1.46545C116.001 0.488409 118.345 0 121.696 0H129.009C132.489 0 134.868 0.511808 136.11 1.54651C137.364 2.59282 137.997 4.50009 137.997 7.25579V9.41849L131.458 10.5467V5.72086H119.576V8.31379L136.661 22.3953L145.11 15.4301L149.879 19.5352L141.512 26.4536L152.985 36H141.946L135.958 30.9771L132.724 33.8372C131.751 34.6748 130.825 35.2325 129.981 35.5115C129.208 35.8371 127.849 36 125.915 36H112.967ZM197.562 6.41896H174.782V29.2326H197.562V21.4884L206 23.2211V27.4765C206 30.7442 205.391 32.9771 204.16 34.1979C202.883 35.3954 200.492 36 197 36H175.344C171.864 36 169.474 35.3954 168.161 34.1979C166.954 32.9654 166.345 30.7324 166.345 27.4882V8.51167C166.345 5.27916 166.954 3.04625 168.161 1.82537C169.462 0.604596 171.852 0 175.344 0H197C200.492 0 202.883 0.604596 204.16 1.82537C205.391 3.03538 206 5.26746 206 8.51167V11.9303L197.562 13.2673V6.41896Z" fill="url(#paint0_linear_2164_1312)"/>
<defs>
<linearGradient id="paint0_linear_2164_1312" x1="103" y1="0" x2="103" y2="36" gradientUnits="userSpaceOnUse">
<stop stop-color="#1DCEE1"/>
<stop offset="1" stop-color="#0086E5"/>
</linearGradient>
</defs>
</svg>
