<svg width="737" height="129" viewBox="0 0 737 129" fill="none" xmlns="http://www.w3.org/2000/svg">
<path d="M0 129V0H132.859V21.9991H30.1865V50.7491H90.0543V72.7512H30.1865V104.75H134.118V129H0ZM298.046 22.5015H213.02V50.2493H294.02C306.639 50.2493 315.277 52.4158 319.971 56.7093C324.289 61.1261 326.471 69.1243 326.471 80.7075V98.4576C326.471 110.125 324.289 118.126 319.971 122.543C315.277 126.834 306.639 129 294.02 129H213.776C201.073 129 192.519 126.834 188.075 122.543C183.589 118.249 181.325 110.25 181.325 98.4576V94.9988L207.989 89.499V104.75H299.805V75.2497H218.807C206.273 75.2497 197.803 73.0832 193.359 68.7923C188.873 64.5013 186.609 56.5 186.609 44.791V30.5002C186.609 18.7916 188.873 10.7929 193.359 6.5409C197.761 2.16647 206.23 0 218.807 0H292.512C304.754 0 313.221 2.08258 317.918 6.29267C322.446 10.4578 324.71 17.792 324.71 28.2498V30.958L298.046 37.2506V22.5015ZM397.112 106.501H457.233L469.348 96.2496L430.318 64.0015L397.112 84.5406V106.501ZM404.157 129C391.747 129 383.151 126.834 378.499 122.543C374.013 118.249 371.749 110.25 371.749 98.4995V90.0014C371.749 84.5825 372.754 80.2497 374.765 77.0002C376.485 73.7503 380.844 70.0849 387.848 66.0422L414.259 50.2913C410.32 46.9576 407.551 43.7919 405.958 40.7517C404.115 37.6666 403.191 34.3332 403.191 30.7513V23.501C403.191 15.0838 405.539 9.00043 410.194 5.25118C415.014 1.75013 423.4 0 435.389 0H461.55C474.003 0 482.515 1.83398 486.958 5.54168C491.445 9.29093 493.709 16.1253 493.709 25.9999V33.7496L470.315 37.7924V20.4998H427.802V29.7911L488.928 80.2497L519.156 55.2912L536.219 70.0011L506.285 94.7922L547.329 129H507.836L486.414 111.001L474.843 121.25C471.362 124.251 468.05 126.25 465.031 127.249C462.264 128.416 457.401 129 450.482 129H404.157ZM706.813 23.0013H625.313V104.75H706.813V77.0002L737 83.209V98.4576C737 110.167 734.82 118.168 730.418 122.543C725.848 126.834 717.294 129 704.802 129H627.324C614.871 129 606.32 126.834 601.624 122.543C597.306 118.126 595.126 110.125 595.126 98.4995V30.5002C595.126 18.917 597.306 10.9157 601.624 6.5409C606.278 2.16647 614.829 0 627.324 0H704.802C717.294 0 725.848 2.16647 730.418 6.5409C734.82 10.8768 737 18.8751 737 30.5002V42.7504L706.813 47.5412V23.0013Z" fill="url(#paint0_linear_2167_488)"/>
<defs>
<linearGradient id="paint0_linear_2167_488" x1="368.5" y1="0" x2="368.5" y2="129" gradientUnits="userSpaceOnUse">
<stop stop-color="#1DCEE1"/>
<stop offset="1" stop-color="#0086E5"/>
</linearGradient>
</defs>
</svg>
